<svg xmlns="http://www.w3.org/2000/svg" version="1.1" xmlns:xlink="http://www.w3.org/1999/xlink" xmlns:svgjs="http://svgjs.com/svgjs" width="1440" height="560" preserveAspectRatio="none" viewBox="0 0 1440 560"><g mask="url(&quot;#SvgjsMask1000&quot;)" fill="none"><rect width="1440" height="560" x="0" y="0" fill="#0e2a47"></rect><path d="M190.7 211.87L255.65 249.37L255.65 324.37L190.7 361.87L125.74 324.37L125.74 249.37zM320.61 -13.13L385.56 24.37L385.56 99.37L320.61 136.87L255.65 99.37L255.65 24.37zM385.56 99.37L450.51 136.87L450.51 211.87L385.56 249.37L320.61 211.87L320.61 136.87zM385.56 324.37L450.51 361.87L450.51 436.87L385.56 474.37L320.61 436.87L320.61 361.87zM450.51 -13.13L515.47 24.37L515.47 99.37L450.51 136.87L385.56 99.37L385.56 24.37zM515.47 549.37L580.42 586.87L580.42 661.87L515.47 699.37L450.51 661.87L450.51 586.87zM580.42 211.87L645.37 249.37L645.37 324.37L580.42 361.87L515.47 324.37L515.47 249.37zM580.42 436.87L645.37 474.37L645.37 549.37L580.42 586.87L515.47 549.37L515.47 474.37zM710.33 -13.13L775.28 24.37L775.28 99.37L710.33 136.87L645.37 99.37L645.37 24.37zM775.28 324.37L840.24 361.87L840.24 436.87L775.28 474.37L710.33 436.87L710.33 361.87zM970.14 211.87L1035.1 249.37L1035.1 324.37L970.14 361.87L905.19 324.37L905.19 249.37zM1035.1 324.37L1100.05 361.87L1100.05 436.87L1035.1 474.37L970.14 436.87L970.14 361.87zM1294.91 324.37L1359.86 361.87L1359.86 436.87L1294.91 474.37L1229.96 436.87L1229.96 361.87zM1294.91 549.37L1359.86 586.87L1359.86 661.87L1294.91 699.37L1229.96 661.87L1229.96 586.87zM1424.82 99.37L1489.77 136.87L1489.77 211.87L1424.82 249.37L1359.87 211.87L1359.87 136.87zM1424.82 549.37L1489.77 586.87L1489.77 661.87L1424.82 699.37L1359.87 661.87L1359.87 586.87zM1489.77 -13.13L1554.73 24.37L1554.73 99.37L1489.77 136.87L1424.82 99.37L1424.82 24.37zM1554.73 99.37L1619.68 136.87L1619.68 211.87L1554.73 249.37L1489.77 211.87L1489.77 136.87z" stroke="#03305d" stroke-width="2"></path><path d="M183.2 211.87 a7.5 7.5 0 1 0 15 0 a7.5 7.5 0 1 0 -15 0zM248.15 249.37 a7.5 7.5 0 1 0 15 0 a7.5 7.5 0 1 0 -15 0zM248.15 324.37 a7.5 7.5 0 1 0 15 0 a7.5 7.5 0 1 0 -15 0zM183.2 361.87 a7.5 7.5 0 1 0 15 0 a7.5 7.5 0 1 0 -15 0zM118.24 324.37 a7.5 7.5 0 1 0 15 0 a7.5 7.5 0 1 0 -15 0zM118.24 249.37 a7.5 7.5 0 1 0 15 0 a7.5 7.5 0 1 0 -15 0zM313.11 -13.13 a7.5 7.5 0 1 0 15 0 a7.5 7.5 0 1 0 -15 0zM378.06 24.37 a7.5 7.5 0 1 0 15 0 a7.5 7.5 0 1 0 -15 0zM378.06 99.37 a7.5 7.5 0 1 0 15 0 a7.5 7.5 0 1 0 -15 0zM313.11 136.87 a7.5 7.5 0 1 0 15 0 a7.5 7.5 0 1 0 -15 0zM248.15 99.37 a7.5 7.5 0 1 0 15 0 a7.5 7.5 0 1 0 -15 0zM248.15 24.37 a7.5 7.5 0 1 0 15 0 a7.5 7.5 0 1 0 -15 0zM443.01 136.87 a7.5 7.5 0 1 0 15 0 a7.5 7.5 0 1 0 -15 0zM443.01 211.87 a7.5 7.5 0 1 0 15 0 a7.5 7.5 0 1 0 -15 0zM378.06 249.37 a7.5 7.5 0 1 0 15 0 a7.5 7.5 0 1 0 -15 0zM313.11 211.87 a7.5 7.5 0 1 0 15 0 a7.5 7.5 0 1 0 -15 0zM378.06 324.37 a7.5 7.5 0 1 0 15 0 a7.5 7.5 0 1 0 -15 0zM443.01 361.87 a7.5 7.5 0 1 0 15 0 a7.5 7.5 0 1 0 -15 0zM443.01 436.87 a7.5 7.5 0 1 0 15 0 a7.5 7.5 0 1 0 -15 0zM378.06 474.37 a7.5 7.5 0 1 0 15 0 a7.5 7.5 0 1 0 -15 0zM313.11 436.87 a7.5 7.5 0 1 0 15 0 a7.5 7.5 0 1 0 -15 0zM313.11 361.87 a7.5 7.5 0 1 0 15 0 a7.5 7.5 0 1 0 -15 0zM443.01 -13.13 a7.5 7.5 0 1 0 15 0 a7.5 7.5 0 1 0 -15 0zM507.97 24.37 a7.5 7.5 0 1 0 15 0 a7.5 7.5 0 1 0 -15 0zM507.97 99.37 a7.5 7.5 0 1 0 15 0 a7.5 7.5 0 1 0 -15 0zM507.97 549.37 a7.5 7.5 0 1 0 15 0 a7.5 7.5 0 1 0 -15 0zM572.92 586.87 a7.5 7.5 0 1 0 15 0 a7.5 7.5 0 1 0 -15 0zM572.92 661.87 a7.5 7.5 0 1 0 15 0 a7.5 7.5 0 1 0 -15 0zM507.97 699.37 a7.5 7.5 0 1 0 15 0 a7.5 7.5 0 1 0 -15 0zM443.01 661.87 a7.5 7.5 0 1 0 15 0 a7.5 7.5 0 1 0 -15 0zM443.01 586.87 a7.5 7.5 0 1 0 15 0 a7.5 7.5 0 1 0 -15 0zM572.92 211.87 a7.5 7.5 0 1 0 15 0 a7.5 7.5 0 1 0 -15 0zM637.87 249.37 a7.5 7.5 0 1 0 15 0 a7.5 7.5 0 1 0 -15 0zM637.87 324.37 a7.5 7.5 0 1 0 15 0 a7.5 7.5 0 1 0 -15 0zM572.92 361.87 a7.5 7.5 0 1 0 15 0 a7.5 7.5 0 1 0 -15 0zM507.97 324.37 a7.5 7.5 0 1 0 15 0 a7.5 7.5 0 1 0 -15 0zM507.97 249.37 a7.5 7.5 0 1 0 15 0 a7.5 7.5 0 1 0 -15 0zM572.92 436.87 a7.5 7.5 0 1 0 15 0 a7.5 7.5 0 1 0 -15 0zM637.87 474.37 a7.5 7.5 0 1 0 15 0 a7.5 7.5 0 1 0 -15 0zM637.87 549.37 a7.5 7.5 0 1 0 15 0 a7.5 7.5 0 1 0 -15 0zM507.97 474.37 a7.5 7.5 0 1 0 15 0 a7.5 7.5 0 1 0 -15 0zM702.83 -13.13 a7.5 7.5 0 1 0 15 0 a7.5 7.5 0 1 0 -15 0zM767.78 24.37 a7.5 7.5 0 1 0 15 0 a7.5 7.5 0 1 0 -15 0zM767.78 99.37 a7.5 7.5 0 1 0 15 0 a7.5 7.5 0 1 0 -15 0zM702.83 136.87 a7.5 7.5 0 1 0 15 0 a7.5 7.5 0 1 0 -15 0zM637.87 99.37 a7.5 7.5 0 1 0 15 0 a7.5 7.5 0 1 0 -15 0zM637.87 24.37 a7.5 7.5 0 1 0 15 0 a7.5 7.5 0 1 0 -15 0zM767.78 324.37 a7.5 7.5 0 1 0 15 0 a7.5 7.5 0 1 0 -15 0zM832.74 361.87 a7.5 7.5 0 1 0 15 0 a7.5 7.5 0 1 0 -15 0zM832.74 436.87 a7.5 7.5 0 1 0 15 0 a7.5 7.5 0 1 0 -15 0zM767.78 474.37 a7.5 7.5 0 1 0 15 0 a7.5 7.5 0 1 0 -15 0zM702.83 436.87 a7.5 7.5 0 1 0 15 0 a7.5 7.5 0 1 0 -15 0zM702.83 361.87 a7.5 7.5 0 1 0 15 0 a7.5 7.5 0 1 0 -15 0zM962.64 211.87 a7.5 7.5 0 1 0 15 0 a7.5 7.5 0 1 0 -15 0zM1027.6 249.37 a7.5 7.5 0 1 0 15 0 a7.5 7.5 0 1 0 -15 0zM1027.6 324.37 a7.5 7.5 0 1 0 15 0 a7.5 7.5 0 1 0 -15 0zM962.64 361.87 a7.5 7.5 0 1 0 15 0 a7.5 7.5 0 1 0 -15 0zM897.69 324.37 a7.5 7.5 0 1 0 15 0 a7.5 7.5 0 1 0 -15 0zM897.69 249.37 a7.5 7.5 0 1 0 15 0 a7.5 7.5 0 1 0 -15 0zM1092.55 361.87 a7.5 7.5 0 1 0 15 0 a7.5 7.5 0 1 0 -15 0zM1092.55 436.87 a7.5 7.5 0 1 0 15 0 a7.5 7.5 0 1 0 -15 0zM1027.6 474.37 a7.5 7.5 0 1 0 15 0 a7.5 7.5 0 1 0 -15 0zM962.64 436.87 a7.5 7.5 0 1 0 15 0 a7.5 7.5 0 1 0 -15 0zM1287.41 324.37 a7.5 7.5 0 1 0 15 0 a7.5 7.5 0 1 0 -15 0zM1352.36 361.87 a7.5 7.5 0 1 0 15 0 a7.5 7.5 0 1 0 -15 0zM1352.36 436.87 a7.5 7.5 0 1 0 15 0 a7.5 7.5 0 1 0 -15 0zM1287.41 474.37 a7.5 7.5 0 1 0 15 0 a7.5 7.5 0 1 0 -15 0zM1222.46 436.87 a7.5 7.5 0 1 0 15 0 a7.5 7.5 0 1 0 -15 0zM1222.46 361.87 a7.5 7.5 0 1 0 15 0 a7.5 7.5 0 1 0 -15 0zM1287.41 549.37 a7.5 7.5 0 1 0 15 0 a7.5 7.5 0 1 0 -15 0zM1352.36 586.87 a7.5 7.5 0 1 0 15 0 a7.5 7.5 0 1 0 -15 0zM1352.36 661.87 a7.5 7.5 0 1 0 15 0 a7.5 7.5 0 1 0 -15 0zM1287.41 699.37 a7.5 7.5 0 1 0 15 0 a7.5 7.5 0 1 0 -15 0zM1222.46 661.87 a7.5 7.5 0 1 0 15 0 a7.5 7.5 0 1 0 -15 0zM1222.46 586.87 a7.5 7.5 0 1 0 15 0 a7.5 7.5 0 1 0 -15 0zM1417.32 99.37 a7.5 7.5 0 1 0 15 0 a7.5 7.5 0 1 0 -15 0zM1482.27 136.87 a7.5 7.5 0 1 0 15 0 a7.5 7.5 0 1 0 -15 0zM1482.27 211.87 a7.5 7.5 0 1 0 15 0 a7.5 7.5 0 1 0 -15 0zM1417.32 249.37 a7.5 7.5 0 1 0 15 0 a7.5 7.5 0 1 0 -15 0zM1352.37 211.87 a7.5 7.5 0 1 0 15 0 a7.5 7.5 0 1 0 -15 0zM1352.37 136.87 a7.5 7.5 0 1 0 15 0 a7.5 7.5 0 1 0 -15 0zM1417.32 549.37 a7.5 7.5 0 1 0 15 0 a7.5 7.5 0 1 0 -15 0zM1482.27 586.87 a7.5 7.5 0 1 0 15 0 a7.5 7.5 0 1 0 -15 0zM1482.27 661.87 a7.5 7.5 0 1 0 15 0 a7.5 7.5 0 1 0 -15 0zM1417.32 699.37 a7.5 7.5 0 1 0 15 0 a7.5 7.5 0 1 0 -15 0zM1352.37 661.87 a7.5 7.5 0 1 0 15 0 a7.5 7.5 0 1 0 -15 0zM1352.37 586.87 a7.5 7.5 0 1 0 15 0 a7.5 7.5 0 1 0 -15 0zM1482.27 -13.13 a7.5 7.5 0 1 0 15 0 a7.5 7.5 0 1 0 -15 0zM1547.23 24.37 a7.5 7.5 0 1 0 15 0 a7.5 7.5 0 1 0 -15 0zM1547.23 99.37 a7.5 7.5 0 1 0 15 0 a7.5 7.5 0 1 0 -15 0zM1417.32 24.37 a7.5 7.5 0 1 0 15 0 a7.5 7.5 0 1 0 -15 0zM1612.18 136.87 a7.5 7.5 0 1 0 15 0 a7.5 7.5 0 1 0 -15 0zM1612.18 211.87 a7.5 7.5 0 1 0 15 0 a7.5 7.5 0 1 0 -15 0zM1547.23 249.37 a7.5 7.5 0 1 0 15 0 a7.5 7.5 0 1 0 -15 0z" fill="#03305d"></path><path d="M18.33 113.88L61.63 138.88L61.63 188.88L18.33 213.88L-24.97 188.88L-24.97 138.88zM104.94 -36.12L148.24 -11.12L148.24 38.88L104.94 63.88L61.63 38.88L61.63 -11.12zM148.24 38.88L191.54 63.88L191.54 113.88L148.24 138.88L104.94 113.88L104.94 63.88zM148.24 488.88L191.54 513.88L191.54 563.88L148.24 588.88L104.94 563.88L104.94 513.88zM191.54 413.88L234.84 438.88L234.84 488.88L191.54 513.88L148.24 488.88L148.24 438.88zM278.14 263.88L321.45 288.88L321.45 338.88L278.14 363.88L234.84 338.88L234.84 288.88zM321.45 338.88L364.75 363.88L364.75 413.88L321.45 438.88L278.14 413.88L278.14 363.88zM278.14 413.88L321.45 438.88L321.45 488.88L278.14 513.88L234.84 488.88L234.84 438.88zM408.05 188.88L451.36 213.88L451.36 263.88L408.05 288.88L364.75 263.88L364.75 213.88zM364.75 413.88L408.05 438.88L408.05 488.88L364.75 513.88L321.45 488.88L321.45 438.88zM451.36 -36.12L494.66 -11.12L494.66 38.88L451.36 63.88L408.05 38.88L408.05 -11.12zM494.66 338.88L537.96 363.88L537.96 413.88L494.66 438.88L451.36 413.88L451.36 363.88zM494.66 488.88L537.96 513.88L537.96 563.88L494.66 588.88L451.36 563.88L451.36 513.88zM537.96 113.88L581.26 138.88L581.26 188.88L537.96 213.88L494.66 188.88L494.66 138.88zM667.87 38.88L711.17 63.88L711.17 113.88L667.87 138.88L624.57 113.88L624.57 63.88zM624.57 113.88L667.87 138.88L667.87 188.88L624.57 213.88L581.26 188.88L581.26 138.88zM624.57 413.88L667.87 438.88L667.87 488.88L624.57 513.88L581.26 488.88L581.26 438.88zM841.08 338.88L884.38 363.88L884.38 413.88L841.08 438.88L797.78 413.88L797.78 363.88zM884.38 113.88L927.68 138.88L927.68 188.88L884.38 213.88L841.08 188.88L841.08 138.88zM970.99 113.88L1014.29 138.88L1014.29 188.88L970.99 213.88L927.68 188.88L927.68 138.88zM1100.89 38.88L1144.19 63.88L1144.19 113.88L1100.89 138.88L1057.59 113.88L1057.59 63.88zM1100.89 188.88L1144.19 213.88L1144.19 263.88L1100.89 288.88L1057.59 263.88L1057.59 213.88zM1057.59 413.88L1100.89 438.88L1100.89 488.88L1057.59 513.88L1014.29 488.88L1014.29 438.88zM1144.19 263.88L1187.5 288.88L1187.5 338.88L1144.19 363.88L1100.89 338.88L1100.89 288.88z" stroke="rgba(6, 80, 156, 0.93)" stroke-width="2"></path></g><defs><mask id="SvgjsMask1000"><rect width="1440" height="560" fill="#ffffff"></rect></mask></defs></svg>